<svg width="12" height="12" viewBox="0 0 12 12" fill="none" xmlns="http://www.w3.org/2000/svg">
<path d="M2.75 9.75H4.625V6.625H7.375V9.75H9.25V4.875L6 2.4375L2.75 4.875V9.75ZM2.75 10.5C2.54167 10.5 2.36458 10.4271 2.21875 10.2812C2.07292 10.1354 2 9.95833 2 9.75V4.875C2 4.75833 2.02708 4.64583 2.08125 4.5375C2.13542 4.42917 2.20833 4.34167 2.3 4.275L5.55 1.8375C5.61667 1.7875 5.6875 1.75 5.7625 1.725C5.8375 1.7 5.91667 1.6875 6 1.6875C6.08333 1.6875 6.1625 1.7 6.2375 1.725C6.3125 1.75 6.38333 1.7875 6.45 1.8375L9.7 4.275C9.79167 4.34167 9.86458 4.42917 9.91875 4.5375C9.97292 4.64583 10 4.75833 10 4.875V9.75C10 9.95833 9.92708 10.1354 9.78125 10.2812C9.63542 10.4271 9.45833 10.5 9.25 10.5H6.625V7.375H5.375V10.5H2.75Z" fill="white"/>
</svg>
