<svg width="24" height="24" viewBox="0 0 24 24" fill="none" xmlns="http://www.w3.org/2000/svg">
    <path d="M10.975 20.1L9.65 18.875C7.58333 16.9583 5.79167 15.1292 4.275 13.3875C2.75833 11.6458 2 9.825 2 7.925C2 6.425 2.50417 5.17083 3.5125 4.1625C4.52083 3.15417 5.76667 2.65 7.25 2.65C8.1 2.65 8.94167 2.85417 9.775 3.2625C10.6083 3.67083 11.35 4.34167 12 5.275C12.7333 4.34167 13.4917 3.67083 14.275 3.2625C15.0583 2.85417 15.8833 2.65 16.75 2.65C18.2333 2.65 19.4792 3.15417 20.4875 4.1625C21.4958 5.17083 22 6.425 22 7.925C22 9.825 21.2417 11.6458 19.725 13.3875C18.2083 15.1292 16.4167 16.9583 14.35 18.875L13.025 20.1C12.7417 20.3667 12.4 20.5 12 20.5C11.6 20.5 11.2583 20.3667 10.975 20.1ZM11.35 6.925C10.9 6.10833 10.3083 5.44167 9.575 4.925C8.84167 4.40833 8.06667 4.15 7.25 4.15C6.15 4.15 5.25 4.50417 4.55 5.2125C3.85 5.92083 3.5 6.825 3.5 7.925C3.5 8.89167 3.825 9.90417 4.475 10.9625C5.125 12.0208 5.9 13.05 6.8 14.05C7.7 15.05 8.63333 15.9792 9.6 16.8375C10.5667 17.6958 11.3667 18.4167 12 19C12.6333 18.4333 13.4333 17.7167 14.4 16.85C15.3667 15.9833 16.3 15.0458 17.2 14.0375C18.1 13.0292 18.875 11.9958 19.525 10.9375C20.175 9.87917 20.5 8.875 20.5 7.925C20.5 6.825 20.1458 5.92083 19.4375 5.2125C18.7292 4.50417 17.8333 4.15 16.75 4.15C15.9167 4.15 15.1375 4.40417 14.4125 4.9125C13.6875 5.42083 13.0833 6.09167 12.6 6.925C12.5167 7.05833 12.425 7.15417 12.325 7.2125C12.225 7.27083 12.1083 7.3 11.975 7.3C11.8417 7.3 11.7208 7.27083 11.6125 7.2125C11.5042 7.15417 11.4167 7.05833 11.35 6.925V6.925Z" fill="black"/>
</svg>
