<svg width="8" height="8" viewBox="0 0 8 8" fill="none" xmlns="http://www.w3.org/2000/svg">
<path d="M2.94998 5.81656C2.90554 5.761 2.88193 5.69989 2.87915 5.63322C2.87637 5.56656 2.89998 5.50822 2.94998 5.45822L4.41665 3.99156L2.94165 2.51656C2.89721 2.47211 2.87637 2.41239 2.87915 2.33739C2.88193 2.26239 2.90554 2.20267 2.94998 2.15822C3.00554 2.10267 3.06526 2.07628 3.12915 2.07906C3.19304 2.08183 3.24998 2.10822 3.29998 2.15822L4.95832 3.81656C4.9861 3.84433 5.00554 3.87211 5.01665 3.89989C5.02776 3.92767 5.03332 3.95822 5.03332 3.99156C5.03332 4.02489 5.02776 4.05544 5.01665 4.08322C5.00554 4.111 4.9861 4.13878 4.95832 4.16656L3.30832 5.81656C3.25832 5.86656 3.19998 5.89017 3.13332 5.88739C3.06665 5.88461 3.00554 5.861 2.94998 5.81656V5.81656Z" fill="white"/>
</svg>
